<svg width="46" height="35" viewBox="0 0 46 35" fill="none" xmlns="http://www.w3.org/2000/svg">
<path d="M38.5756 28.5942C38.9081 30.9912 38.6821 31.9801 37.5742 34.6562C37.0478 33.5274 37.1462 32.7347 36.2959 31.9149C35.1066 30.7682 33.9849 32.0109 32.5449 30.8174C31.5756 29.8681 31.4508 29.3512 31.9329 28.4525L34.3952 25.7338C35.3627 25.2826 38.157 26.4336 38.5756 28.5942Z" fill="url(#paint0_linear_50_29)"/>
<path d="M29.1279 26.4944L32.203 23.1955L34.105 24.9588L31.0299 28.2577L29.1279 26.4944Z" fill="black"/>
<path d="M7.32562 2.89465L7.41168 2.65821L31.6226 22.5827L28.5475 25.8816L7.32562 2.89465Z" fill="black"/>
<defs>
<linearGradient id="paint0_linear_50_29" x1="35.3736" y1="25.1527" x2="36.5424" y2="34.8161" gradientUnits="userSpaceOnUse">
<stop stop-color="#05899B"/>
<stop offset="0.317827" stop-color="#00A7AD"/>
<stop offset="0.668269" stop-color="#123867"/>
</linearGradient>
</defs>
</svg>
